<mxfile host="app.diagrams.net" agent="Mozilla/5.0 (Windows NT 10.0; Win64; x64) AppleWebKit/537.36 (KHTML, like Gecko) Chrome/132.0.0.0 Safari/537.36" version="26.0.10">
  <diagram name="Página-1" id="48M1OholPXDdKoVH5Szc">
    <mxGraphModel dx="1933" dy="4006" grid="0" gridSize="10" guides="1" tooltips="1" connect="1" arrows="1" fold="1" page="1" pageScale="1" pageWidth="850" pageHeight="1100" math="0" shadow="0">
      <root>
        <mxCell id="0" />
        <mxCell id="1" parent="0" />
        <mxCell id="_KhCzG9Bb4c7q6jr102G-16" value="" style="edgeStyle=none;curved=1;rounded=0;orthogonalLoop=1;jettySize=auto;html=1;fontFamily=Helvetica;fontSize=12;fontColor=default;startSize=8;endSize=8;entryX=0.5;entryY=0;entryDx=0;entryDy=0;exitX=0.5;exitY=1;exitDx=0;exitDy=0;exitPerimeter=0;" parent="1" source="_KhCzG9Bb4c7q6jr102G-1" target="_KhCzG9Bb4c7q6jr102G-15" edge="1">
          <mxGeometry relative="1" as="geometry">
            <mxPoint x="-160" y="723" as="sourcePoint" />
          </mxGeometry>
        </mxCell>
        <mxCell id="_KhCzG9Bb4c7q6jr102G-24" value="&lt;span style=&quot;font-size: 15px;&quot;&gt;&lt;font style=&quot;vertical-align: inherit;&quot;&gt;&lt;font style=&quot;vertical-align: inherit;&quot;&gt;Resultado&lt;/font&gt;&lt;/font&gt;&lt;/span&gt;" style="edgeLabel;html=1;align=center;verticalAlign=middle;resizable=0;points=[];fontSize=12;rounded=1;strokeColor=default;fontFamily=Helvetica;fontColor=default;fillColor=default;" parent="_KhCzG9Bb4c7q6jr102G-16" vertex="1" connectable="0">
          <mxGeometry x="-0.1143" y="1" relative="1" as="geometry">
            <mxPoint as="offset" />
          </mxGeometry>
        </mxCell>
        <mxCell id="_KhCzG9Bb4c7q6jr102G-1" value="&lt;b style=&quot;font-family: &amp;quot;Times New Roman&amp;quot;;&quot;&gt;&lt;font style=&quot;vertical-align: inherit;&quot;&gt;&lt;font style=&quot;vertical-align: inherit; font-size: 15px;&quot;&gt;&lt;font style=&quot;vertical-align: inherit;&quot;&gt;&lt;font style=&quot;vertical-align: inherit;&quot;&gt;config_database.php&lt;/font&gt;&lt;/font&gt;&lt;/font&gt;&lt;/font&gt;&lt;/b&gt;" style="shape=cylinder3;whiteSpace=wrap;html=1;boundedLbl=1;backgroundOutline=1;size=15;fillColor=light-dark(#66FF66,#66FF66);" parent="1" vertex="1">
          <mxGeometry x="-285" y="480" width="141" height="213" as="geometry" />
        </mxCell>
        <mxCell id="_KhCzG9Bb4c7q6jr102G-5" style="edgeStyle=none;curved=1;rounded=0;orthogonalLoop=1;jettySize=auto;html=1;fontSize=12;startSize=8;endSize=8;exitX=0.5;exitY=1;exitDx=0;exitDy=0;entryX=0.5;entryY=0;entryDx=0;entryDy=0;" parent="1" source="_KhCzG9Bb4c7q6jr102G-8" target="_KhCzG9Bb4c7q6jr102G-9" edge="1">
          <mxGeometry relative="1" as="geometry">
            <mxPoint x="-407.78346456692907" y="395" as="targetPoint" />
            <mxPoint x="-446.6092715231789" y="316" as="sourcePoint" />
          </mxGeometry>
        </mxCell>
        <mxCell id="_KhCzG9Bb4c7q6jr102G-28" value="" style="edgeStyle=none;curved=1;rounded=0;orthogonalLoop=1;jettySize=auto;html=1;fontFamily=Helvetica;fontSize=12;fontColor=default;startSize=8;endSize=8;" parent="1" source="_KhCzG9Bb4c7q6jr102G-8" target="_KhCzG9Bb4c7q6jr102G-27" edge="1">
          <mxGeometry relative="1" as="geometry" />
        </mxCell>
        <mxCell id="_KhCzG9Bb4c7q6jr102G-8" value="Ingresar correo y contraseña" style="shape=process;whiteSpace=wrap;html=1;backgroundOutline=1;rounded=1;strokeColor=default;align=center;verticalAlign=middle;fontFamily=Helvetica;fontSize=12;fontColor=default;fillColor=default;" parent="1" vertex="1">
          <mxGeometry x="-828.25" y="175" width="120" height="60" as="geometry" />
        </mxCell>
        <mxCell id="_KhCzG9Bb4c7q6jr102G-12" value="" style="edgeStyle=none;curved=1;rounded=0;orthogonalLoop=1;jettySize=auto;html=1;fontFamily=Helvetica;fontSize=12;fontColor=default;startSize=8;endSize=8;" parent="1" source="_KhCzG9Bb4c7q6jr102G-9" target="_KhCzG9Bb4c7q6jr102G-11" edge="1">
          <mxGeometry relative="1" as="geometry" />
        </mxCell>
        <mxCell id="_KhCzG9Bb4c7q6jr102G-9" value="validador de entrada&lt;div&gt;(verificar campos vacíos, bloqueo de caracteres especiales y prevención de inyecciones sql/xss y longitud de contraseña, bloqueo de vista o modificación desde consola del navegador)&lt;/div&gt;" style="shape=process;whiteSpace=wrap;html=1;backgroundOutline=1;rounded=1;strokeColor=default;align=center;verticalAlign=middle;fontFamily=Helvetica;fontSize=12;fontColor=default;fillColor=default;" parent="1" vertex="1">
          <mxGeometry x="-637" y="248.5" width="219" height="132" as="geometry" />
        </mxCell>
        <mxCell id="_KhCzG9Bb4c7q6jr102G-11" value="Consulta en base de datos de credenciales (correo y contraseña)" style="shape=process;whiteSpace=wrap;html=1;backgroundOutline=1;rounded=1;strokeColor=default;align=center;verticalAlign=middle;fontFamily=Helvetica;fontSize=12;fontColor=default;fillColor=default;" parent="1" vertex="1">
          <mxGeometry x="-308" y="286" width="182" height="69" as="geometry" />
        </mxCell>
        <mxCell id="_KhCzG9Bb4c7q6jr102G-20" value="" style="edgeStyle=none;curved=1;rounded=0;orthogonalLoop=1;jettySize=auto;html=1;fontFamily=Helvetica;fontSize=12;fontColor=default;startSize=8;endSize=8;" parent="1" source="_KhCzG9Bb4c7q6jr102G-15" target="_KhCzG9Bb4c7q6jr102G-19" edge="1">
          <mxGeometry relative="1" as="geometry" />
        </mxCell>
        <mxCell id="_KhCzG9Bb4c7q6jr102G-23" value="" style="edgeStyle=none;curved=1;rounded=0;orthogonalLoop=1;jettySize=auto;html=1;fontFamily=Helvetica;fontSize=12;fontColor=default;startSize=8;endSize=8;" parent="1" source="_KhCzG9Bb4c7q6jr102G-15" target="_KhCzG9Bb4c7q6jr102G-21" edge="1">
          <mxGeometry relative="1" as="geometry" />
        </mxCell>
        <mxCell id="_KhCzG9Bb4c7q6jr102G-15" value="¿Credenciales correctas?" style="rhombus;whiteSpace=wrap;html=1;fillColor=light-dark(#FFFFFF,#66FF66);" parent="1" vertex="1">
          <mxGeometry x="-288" y="773" width="115" height="127" as="geometry" />
        </mxCell>
        <mxCell id="_KhCzG9Bb4c7q6jr102G-72" style="edgeStyle=none;curved=1;rounded=0;orthogonalLoop=1;jettySize=auto;html=1;exitX=0;exitY=0.5;exitDx=0;exitDy=0;entryX=1;entryY=0.5;entryDx=0;entryDy=0;fontFamily=Helvetica;fontSize=12;fontColor=default;startSize=8;endSize=8;" parent="1" source="_KhCzG9Bb4c7q6jr102G-19" target="_KhCzG9Bb4c7q6jr102G-73" edge="1">
          <mxGeometry relative="1" as="geometry">
            <mxPoint x="-612" y="696.7549999999999" as="targetPoint" />
          </mxGeometry>
        </mxCell>
        <mxCell id="_KhCzG9Bb4c7q6jr102G-19" value="No" style="whiteSpace=wrap;html=1;fillColor=light-dark(#FFFFFF,#66FF66);" parent="1" vertex="1">
          <mxGeometry x="-412" y="820.25" width="60" height="32.5" as="geometry" />
        </mxCell>
        <mxCell id="_KhCzG9Bb4c7q6jr102G-50" style="edgeStyle=none;curved=1;rounded=0;orthogonalLoop=1;jettySize=auto;html=1;exitX=0.5;exitY=1;exitDx=0;exitDy=0;fontFamily=Helvetica;fontSize=12;fontColor=default;startSize=8;endSize=8;entryX=0.5;entryY=0;entryDx=0;entryDy=0;" parent="1" source="_KhCzG9Bb4c7q6jr102G-21" target="_KhCzG9Bb4c7q6jr102G-51" edge="1">
          <mxGeometry relative="1" as="geometry">
            <mxPoint x="-253" y="776.3333333333335" as="targetPoint" />
          </mxGeometry>
        </mxCell>
        <mxCell id="_KhCzG9Bb4c7q6jr102G-21" value="Si" style="whiteSpace=wrap;html=1;fillColor=light-dark(#FFFFFF,#66FF66);" parent="1" vertex="1">
          <mxGeometry x="-130.5" y="816" width="60" height="32.5" as="geometry" />
        </mxCell>
        <mxCell id="vCBoUSU8JS7dNAUWbDVz-17" value="" style="edgeStyle=none;curved=1;rounded=0;orthogonalLoop=1;jettySize=auto;html=1;fontSize=12;startSize=8;endSize=8;exitX=1;exitY=0.5;exitDx=0;exitDy=0;" parent="1" source="_KhCzG9Bb4c7q6jr102G-27" target="vCBoUSU8JS7dNAUWbDVz-16" edge="1">
          <mxGeometry relative="1" as="geometry" />
        </mxCell>
        <mxCell id="_KhCzG9Bb4c7q6jr102G-27" value="olvide mis credenciales" style="shape=process;whiteSpace=wrap;html=1;backgroundOutline=1;rounded=1;strokeColor=default;align=center;verticalAlign=middle;fontFamily=Helvetica;fontSize=12;fontColor=default;fillColor=default;" parent="1" vertex="1">
          <mxGeometry x="-498" y="175" width="120" height="60" as="geometry" />
        </mxCell>
        <mxCell id="_KhCzG9Bb4c7q6jr102G-47" style="edgeStyle=none;curved=1;rounded=0;orthogonalLoop=1;jettySize=auto;html=1;entryX=0.5;entryY=0;entryDx=0;entryDy=0;fontFamily=Helvetica;fontSize=12;fontColor=default;startSize=8;endSize=8;exitX=0.5;exitY=1;exitDx=0;exitDy=0;" parent="1" source="_KhCzG9Bb4c7q6jr102G-65" target="_KhCzG9Bb4c7q6jr102G-8" edge="1">
          <mxGeometry relative="1" as="geometry">
            <mxPoint x="-467" y="149" as="sourcePoint" />
          </mxGeometry>
        </mxCell>
        <mxCell id="vCBoUSU8JS7dNAUWbDVz-11" style="edgeStyle=none;curved=1;rounded=0;orthogonalLoop=1;jettySize=auto;html=1;exitX=0.5;exitY=1;exitDx=0;exitDy=0;entryX=0.5;entryY=0;entryDx=0;entryDy=0;fontSize=12;startSize=8;endSize=8;" parent="1" source="_KhCzG9Bb4c7q6jr102G-51" target="_KhCzG9Bb4c7q6jr102G-59" edge="1">
          <mxGeometry relative="1" as="geometry" />
        </mxCell>
        <mxCell id="_KhCzG9Bb4c7q6jr102G-51" value="procesar_login.php" style="shape=process;whiteSpace=wrap;html=1;backgroundOutline=1;rounded=1;strokeColor=default;align=center;verticalAlign=middle;fontFamily=Helvetica;fontSize=12;fontColor=default;fillColor=default;" parent="1" vertex="1">
          <mxGeometry x="-167" y="866" width="135.5" height="50" as="geometry" />
        </mxCell>
        <mxCell id="_KhCzG9Bb4c7q6jr102G-64" value="" style="edgeStyle=none;curved=1;rounded=0;orthogonalLoop=1;jettySize=auto;html=1;fontFamily=Helvetica;fontSize=12;fontColor=default;startSize=8;endSize=8;" parent="1" source="_KhCzG9Bb4c7q6jr102G-59" target="_KhCzG9Bb4c7q6jr102G-63" edge="1">
          <mxGeometry relative="1" as="geometry" />
        </mxCell>
        <mxCell id="_KhCzG9Bb4c7q6jr102G-59" value="dashboard.php" style="shape=process;whiteSpace=wrap;html=1;backgroundOutline=1;rounded=1;strokeColor=default;align=center;verticalAlign=middle;fontFamily=Helvetica;fontSize=12;fontColor=default;fillColor=default;" parent="1" vertex="1">
          <mxGeometry x="-163" y="941" width="127.5" height="64" as="geometry" />
        </mxCell>
        <mxCell id="_KhCzG9Bb4c7q6jr102G-63" value="Fin" style="whiteSpace=wrap;html=1;rounded=1;" parent="1" vertex="1">
          <mxGeometry x="-159.25" y="1035" width="120" height="29" as="geometry" />
        </mxCell>
        <mxCell id="_KhCzG9Bb4c7q6jr102G-65" value="INICIO" style="whiteSpace=wrap;html=1;rounded=1;" parent="1" vertex="1">
          <mxGeometry x="-841.75" y="115" width="147" height="26" as="geometry" />
        </mxCell>
        <mxCell id="_KhCzG9Bb4c7q6jr102G-94" value="" style="edgeStyle=none;curved=1;rounded=0;orthogonalLoop=1;jettySize=auto;html=1;fontFamily=Helvetica;fontSize=12;fontColor=default;startSize=8;endSize=8;entryX=0.5;entryY=1;entryDx=0;entryDy=0;exitX=0.5;exitY=0;exitDx=0;exitDy=0;" parent="1" source="_KhCzG9Bb4c7q6jr102G-73" target="_KhCzG9Bb4c7q6jr102G-77" edge="1">
          <mxGeometry relative="1" as="geometry">
            <mxPoint x="-672" y="667" as="sourcePoint" />
            <mxPoint x="-666.7" y="773.0000000000002" as="targetPoint" />
          </mxGeometry>
        </mxCell>
        <mxCell id="_KhCzG9Bb4c7q6jr102G-73" value="&lt;font style=&quot;vertical-align: inherit;&quot;&gt;&lt;font style=&quot;vertical-align: inherit;&quot;&gt;&lt;font style=&quot;vertical-align: inherit;&quot;&gt;&lt;font style=&quot;vertical-align: inherit;&quot;&gt;Contar intentos fallidos&lt;/font&gt;&lt;/font&gt;&lt;/font&gt;&lt;/font&gt;" style="shape=process;whiteSpace=wrap;html=1;backgroundOutline=1;rounded=1;strokeColor=default;align=center;verticalAlign=middle;fontFamily=Helvetica;fontSize=12;fontColor=default;fillColor=default;" parent="1" vertex="1">
          <mxGeometry x="-728" y="807" width="120" height="59" as="geometry" />
        </mxCell>
        <mxCell id="_KhCzG9Bb4c7q6jr102G-81" style="edgeStyle=none;curved=1;rounded=0;orthogonalLoop=1;jettySize=auto;html=1;exitX=1;exitY=0.5;exitDx=0;exitDy=0;entryX=0;entryY=0.5;entryDx=0;entryDy=0;fontFamily=Helvetica;fontSize=12;fontColor=default;startSize=8;endSize=8;" parent="1" source="_KhCzG9Bb4c7q6jr102G-77" target="_KhCzG9Bb4c7q6jr102G-80" edge="1">
          <mxGeometry relative="1" as="geometry" />
        </mxCell>
        <mxCell id="_KhCzG9Bb4c7q6jr102G-84" style="edgeStyle=none;curved=1;rounded=0;orthogonalLoop=1;jettySize=auto;html=1;exitX=0;exitY=0.5;exitDx=0;exitDy=0;fontFamily=Helvetica;fontSize=12;fontColor=default;startSize=8;endSize=8;entryX=1;entryY=0.5;entryDx=0;entryDy=0;" parent="1" source="_KhCzG9Bb4c7q6jr102G-77" target="_KhCzG9Bb4c7q6jr102G-83" edge="1">
          <mxGeometry relative="1" as="geometry">
            <mxPoint x="-749" y="577.3529411764707" as="targetPoint" />
          </mxGeometry>
        </mxCell>
        <mxCell id="_KhCzG9Bb4c7q6jr102G-77" value="&lt;font&gt;¿Ha alcanzado el limite de intentos?&lt;/font&gt;" style="rhombus;whiteSpace=wrap;html=1;fillColor=light-dark(#FFFFFF,#66FF66);" parent="1" vertex="1">
          <mxGeometry x="-732" y="669.5" width="124" height="119" as="geometry" />
        </mxCell>
        <mxCell id="_KhCzG9Bb4c7q6jr102G-82" style="edgeStyle=none;curved=1;rounded=0;orthogonalLoop=1;jettySize=auto;html=1;fontFamily=Helvetica;fontSize=12;fontColor=default;startSize=8;endSize=8;entryX=0.489;entryY=0.796;entryDx=0;entryDy=0;exitX=0.5;exitY=0;exitDx=0;exitDy=0;entryPerimeter=0;" parent="1" source="5T2TWeuZ88sEgPXUiJGP-6" target="hfySa0wKCtFvmeLXtYxJ-6" edge="1">
          <mxGeometry relative="1" as="geometry">
            <mxPoint x="-561.5000000000002" y="512.5" as="targetPoint" />
            <mxPoint x="-559" y="559" as="sourcePoint" />
          </mxGeometry>
        </mxCell>
        <mxCell id="_KhCzG9Bb4c7q6jr102G-80" value="No" style="whiteSpace=wrap;html=1;fillColor=light-dark(#FFFFFF,#66FF66);" parent="1" vertex="1">
          <mxGeometry x="-589" y="712.75" width="60" height="32.5" as="geometry" />
        </mxCell>
        <mxCell id="_KhCzG9Bb4c7q6jr102G-86" style="edgeStyle=none;curved=1;rounded=0;orthogonalLoop=1;jettySize=auto;html=1;exitX=0.5;exitY=0;exitDx=0;exitDy=0;fontFamily=Helvetica;fontSize=12;fontColor=default;startSize=8;endSize=8;" parent="1" source="_KhCzG9Bb4c7q6jr102G-83" target="_KhCzG9Bb4c7q6jr102G-87" edge="1">
          <mxGeometry relative="1" as="geometry">
            <mxPoint x="-776.0588235294117" y="447.9411764705883" as="targetPoint" />
          </mxGeometry>
        </mxCell>
        <mxCell id="_KhCzG9Bb4c7q6jr102G-83" value="Si" style="whiteSpace=wrap;html=1;fillColor=light-dark(#FFFFFF,#66FF66);" parent="1" vertex="1">
          <mxGeometry x="-788.75" y="712.75" width="41" height="32.5" as="geometry" />
        </mxCell>
        <mxCell id="vCBoUSU8JS7dNAUWbDVz-14" style="edgeStyle=none;curved=1;rounded=0;orthogonalLoop=1;jettySize=auto;html=1;exitX=0.5;exitY=0;exitDx=0;exitDy=0;entryX=0.5;entryY=1;entryDx=0;entryDy=0;fontSize=12;startSize=8;endSize=8;" parent="1" source="_KhCzG9Bb4c7q6jr102G-87" target="vCBoUSU8JS7dNAUWbDVz-13" edge="1">
          <mxGeometry relative="1" as="geometry" />
        </mxCell>
        <mxCell id="_KhCzG9Bb4c7q6jr102G-87" value="Bloquear al usuario con IP y espera 1 hora paara volver a logearse" style="shape=process;whiteSpace=wrap;html=1;backgroundOutline=1;rounded=1;strokeColor=default;align=center;verticalAlign=middle;fontFamily=Helvetica;fontSize=12;fontColor=default;fillColor=default;" parent="1" vertex="1">
          <mxGeometry x="-838.5" y="598" width="140.5" height="65" as="geometry" />
        </mxCell>
        <mxCell id="vCBoUSU8JS7dNAUWbDVz-12" style="edgeStyle=none;curved=1;rounded=0;orthogonalLoop=1;jettySize=auto;html=1;exitX=0.5;exitY=1;exitDx=0;exitDy=0;fontSize=12;startSize=8;endSize=8;" parent="1" source="_KhCzG9Bb4c7q6jr102G-63" target="_KhCzG9Bb4c7q6jr102G-63" edge="1">
          <mxGeometry relative="1" as="geometry" />
        </mxCell>
        <mxCell id="vCBoUSU8JS7dNAUWbDVz-15" style="edgeStyle=none;curved=1;rounded=0;orthogonalLoop=1;jettySize=auto;html=1;fontSize=12;startSize=8;endSize=8;entryX=0.474;entryY=0.813;entryDx=0;entryDy=0;entryPerimeter=0;" parent="1" source="vCBoUSU8JS7dNAUWbDVz-13" target="hfySa0wKCtFvmeLXtYxJ-7" edge="1">
          <mxGeometry relative="1" as="geometry">
            <mxPoint x="-771.4949999999999" y="476" as="targetPoint" />
          </mxGeometry>
        </mxCell>
        <mxCell id="vCBoUSU8JS7dNAUWbDVz-13" value="&lt;font style=&quot;vertical-align: inherit;&quot;&gt;&lt;font style=&quot;vertical-align: inherit;&quot;&gt;Mensaje (Notificación al correo electrónico del administrador de un inicio de sesión sospechoso&lt;/font&gt;&lt;/font&gt;" style="shape=process;whiteSpace=wrap;html=1;backgroundOutline=1;rounded=1;strokeColor=default;align=center;verticalAlign=middle;fontFamily=Helvetica;fontSize=12;fontColor=default;fillColor=default;" parent="1" vertex="1">
          <mxGeometry x="-841.75" y="485" width="145.75" height="93" as="geometry" />
        </mxCell>
        <mxCell id="vCBoUSU8JS7dNAUWbDVz-18" style="edgeStyle=none;curved=1;rounded=0;orthogonalLoop=1;jettySize=auto;html=1;fontSize=12;startSize=8;endSize=8;exitX=0.5;exitY=0.792;exitDx=0;exitDy=0;exitPerimeter=0;" parent="1" source="hfySa0wKCtFvmeLXtYxJ-5" edge="1">
          <mxGeometry relative="1" as="geometry">
            <mxPoint x="-34.14285714285688" y="1051.5714285714287" as="targetPoint" />
            <Array as="points">
              <mxPoint x="9" y="750" />
            </Array>
            <mxPoint x="-76" y="523" as="sourcePoint" />
          </mxGeometry>
        </mxCell>
        <mxCell id="vCBoUSU8JS7dNAUWbDVz-20" style="edgeStyle=none;curved=1;rounded=0;orthogonalLoop=1;jettySize=auto;html=1;fontSize=12;startSize=8;endSize=8;entryX=0.5;entryY=0;entryDx=0;entryDy=0;" parent="1" source="vCBoUSU8JS7dNAUWbDVz-16" target="hfySa0wKCtFvmeLXtYxJ-5" edge="1">
          <mxGeometry relative="1" as="geometry">
            <mxPoint x="-76" y="442" as="targetPoint" />
          </mxGeometry>
        </mxCell>
        <mxCell id="vCBoUSU8JS7dNAUWbDVz-16" value="Notificación a correo electrónico del administrador" style="shape=process;whiteSpace=wrap;html=1;backgroundOutline=1;rounded=1;strokeColor=default;align=center;verticalAlign=middle;fontFamily=Helvetica;fontSize=12;fontColor=default;fillColor=default;" parent="1" vertex="1">
          <mxGeometry x="-139" y="161.5" width="120" height="87" as="geometry" />
        </mxCell>
        <mxCell id="5T2TWeuZ88sEgPXUiJGP-2" style="edgeStyle=none;curved=1;rounded=0;orthogonalLoop=1;jettySize=auto;html=1;exitX=1;exitY=0.25;exitDx=0;exitDy=0;entryX=0.047;entryY=0.406;entryDx=0;entryDy=0;entryPerimeter=0;fontSize=12;startSize=8;endSize=8;" parent="1" source="_KhCzG9Bb4c7q6jr102G-73" target="_KhCzG9Bb4c7q6jr102G-1" edge="1">
          <mxGeometry relative="1" as="geometry">
            <Array as="points">
              <mxPoint x="-380" y="699" />
            </Array>
          </mxGeometry>
        </mxCell>
        <mxCell id="5T2TWeuZ88sEgPXUiJGP-3" value="&lt;span style=&quot;font-size: 15px;&quot;&gt;&lt;font style=&quot;vertical-align: inherit;&quot;&gt;&lt;font style=&quot;vertical-align: inherit;&quot;&gt;Registro de intentos fallidos&lt;/font&gt;&lt;/font&gt;&lt;/span&gt;" style="edgeLabel;html=1;align=center;verticalAlign=middle;resizable=0;points=[];fontSize=12;" parent="5T2TWeuZ88sEgPXUiJGP-2" vertex="1" connectable="0">
          <mxGeometry x="-0.0026" y="-12" relative="1" as="geometry">
            <mxPoint x="1" as="offset" />
          </mxGeometry>
        </mxCell>
        <mxCell id="5T2TWeuZ88sEgPXUiJGP-6" value="&lt;font style=&quot;vertical-align: inherit;&quot;&gt;&lt;font style=&quot;vertical-align: inherit;&quot;&gt;&lt;font style=&quot;vertical-align: inherit;&quot;&gt;&lt;font style=&quot;vertical-align: inherit;&quot;&gt;implementación de CAPTCHA a los 3 intentos fallidos&lt;/font&gt;&lt;/font&gt;&lt;/font&gt;&lt;/font&gt;" style="shape=process;whiteSpace=wrap;html=1;backgroundOutline=1;rounded=1;strokeColor=default;align=center;verticalAlign=middle;fontFamily=Helvetica;fontSize=12;fontColor=default;fillColor=default;" parent="1" vertex="1">
          <mxGeometry x="-674.3" y="598" width="230.6" height="46" as="geometry" />
        </mxCell>
        <mxCell id="5T2TWeuZ88sEgPXUiJGP-7" style="edgeStyle=none;curved=1;rounded=0;orthogonalLoop=1;jettySize=auto;html=1;exitX=0.5;exitY=0;exitDx=0;exitDy=0;entryX=0.5;entryY=1;entryDx=0;entryDy=0;fontSize=12;startSize=8;endSize=8;" parent="1" source="_KhCzG9Bb4c7q6jr102G-80" target="5T2TWeuZ88sEgPXUiJGP-6" edge="1">
          <mxGeometry relative="1" as="geometry" />
        </mxCell>
        <mxCell id="5T2TWeuZ88sEgPXUiJGP-8" value="&lt;font style=&quot;vertical-align: inherit;&quot;&gt;&lt;font style=&quot;vertical-align: inherit;&quot;&gt;&lt;font style=&quot;vertical-align: inherit;&quot;&gt;&lt;font style=&quot;vertical-align: inherit;&quot;&gt;&lt;font style=&quot;vertical-align: inherit;&quot;&gt;&lt;font style=&quot;vertical-align: inherit;&quot;&gt;Conexión base de datos centralizada&lt;/font&gt;&lt;/font&gt;&lt;/font&gt;&lt;/font&gt;&lt;/font&gt;&lt;/font&gt;" style="shape=cylinder3;whiteSpace=wrap;html=1;boundedLbl=1;backgroundOutline=1;size=15;fillColor=light-dark(#66FF66,#66FF66);" parent="1" vertex="1">
          <mxGeometry x="-151" y="1644" width="109" height="170" as="geometry" />
        </mxCell>
        <mxCell id="5T2TWeuZ88sEgPXUiJGP-10" value="&lt;font style=&quot;vertical-align: inherit;&quot;&gt;&lt;font style=&quot;vertical-align: inherit;&quot;&gt;&lt;font style=&quot;vertical-align: inherit;&quot;&gt;&lt;font style=&quot;vertical-align: inherit;&quot;&gt;&lt;font style=&quot;vertical-align: inherit;&quot;&gt;&lt;font style=&quot;vertical-align: inherit;&quot;&gt;&lt;font style=&quot;vertical-align: inherit;&quot;&gt;&lt;font face=&quot;Times New Roman&quot; style=&quot;vertical-align: inherit; font-size: 31px;&quot;&gt;&lt;b style=&quot;&quot;&gt;Diagrama algorítmico: Login.php&lt;/b&gt;&lt;/font&gt;&lt;/font&gt;&lt;/font&gt;&lt;/font&gt;&lt;/font&gt;&lt;/font&gt;&lt;/font&gt;&lt;/font&gt;" style="text;strokeColor=none;fillColor=none;html=1;align=center;verticalAlign=middle;whiteSpace=wrap;rounded=0;fontSize=16;" parent="1" vertex="1">
          <mxGeometry x="-847" y="24" width="845" height="30" as="geometry" />
        </mxCell>
        <mxCell id="5T2TWeuZ88sEgPXUiJGP-12" value="&lt;font style=&quot;vertical-align: inherit;&quot;&gt;&lt;font style=&quot;vertical-align: inherit;&quot;&gt;&lt;font style=&quot;vertical-align: inherit;&quot;&gt;&lt;font style=&quot;vertical-align: inherit;&quot;&gt;&lt;font style=&quot;vertical-align: inherit;&quot;&gt;&lt;font style=&quot;vertical-align: inherit;&quot;&gt;&lt;font style=&quot;vertical-align: inherit;&quot;&gt;&lt;font face=&quot;Times New Roman&quot; style=&quot;vertical-align: inherit; font-size: 31px;&quot;&gt;&lt;b style=&quot;&quot;&gt;Diagrama de clase: config_database.php&lt;/b&gt;&lt;/font&gt;&lt;/font&gt;&lt;/font&gt;&lt;/font&gt;&lt;/font&gt;&lt;/font&gt;&lt;/font&gt;&lt;/font&gt;" style="text;strokeColor=none;fillColor=none;html=1;align=center;verticalAlign=middle;whiteSpace=wrap;rounded=0;fontSize=16;" parent="1" vertex="1">
          <mxGeometry x="-847" y="-1064" width="845" height="30" as="geometry" />
        </mxCell>
        <mxCell id="5T2TWeuZ88sEgPXUiJGP-13" value="&lt;font style=&quot;vertical-align: inherit;&quot;&gt;&lt;font style=&quot;vertical-align: inherit;&quot;&gt;&lt;font style=&quot;vertical-align: inherit;&quot;&gt;&lt;font style=&quot;vertical-align: inherit;&quot;&gt;&lt;font style=&quot;vertical-align: inherit;&quot;&gt;&lt;font style=&quot;vertical-align: inherit;&quot;&gt;&lt;font style=&quot;vertical-align: inherit;&quot;&gt;&lt;font face=&quot;Times New Roman&quot; style=&quot;vertical-align: inherit; font-size: 31px;&quot;&gt;&lt;b style=&quot;&quot;&gt;Diagrama algorítmico: procesar_login.php&lt;/b&gt;&lt;/font&gt;&lt;/font&gt;&lt;/font&gt;&lt;/font&gt;&lt;/font&gt;&lt;/font&gt;&lt;/font&gt;&lt;/font&gt;" style="text;strokeColor=none;fillColor=none;html=1;align=center;verticalAlign=middle;whiteSpace=wrap;rounded=0;fontSize=16;" parent="1" vertex="1">
          <mxGeometry x="-847" y="1134" width="845" height="30" as="geometry" />
        </mxCell>
        <mxCell id="5T2TWeuZ88sEgPXUiJGP-15" value="&lt;font style=&quot;vertical-align: inherit;&quot;&gt;&lt;font style=&quot;vertical-align: inherit;&quot;&gt;&lt;font style=&quot;vertical-align: inherit;&quot;&gt;&lt;font style=&quot;vertical-align: inherit;&quot;&gt;&lt;font style=&quot;vertical-align: inherit;&quot;&gt;&lt;font style=&quot;vertical-align: inherit;&quot;&gt;&lt;font style=&quot;vertical-align: inherit;&quot;&gt;&lt;font face=&quot;Times New Roman&quot; style=&quot;vertical-align: inherit; font-size: 31px;&quot;&gt;&lt;b style=&quot;&quot;&gt;Diagrama algorítmico: dashboard.php&lt;/b&gt;&lt;/font&gt;&lt;/font&gt;&lt;/font&gt;&lt;/font&gt;&lt;/font&gt;&lt;/font&gt;&lt;/font&gt;&lt;/font&gt;" style="text;strokeColor=none;fillColor=none;html=1;align=center;verticalAlign=middle;whiteSpace=wrap;rounded=0;fontSize=16;" parent="1" vertex="1">
          <mxGeometry x="-847" y="2236" width="845" height="30" as="geometry" />
        </mxCell>
        <mxCell id="Hz7jpVkMcCUcL8wQfnKb-1" value="&lt;font style=&quot;vertical-align: inherit;&quot;&gt;&lt;font style=&quot;vertical-align: inherit;&quot;&gt;&lt;font style=&quot;vertical-align: inherit;&quot;&gt;&lt;font style=&quot;vertical-align: inherit;&quot;&gt;&lt;font style=&quot;vertical-align: inherit;&quot;&gt;&lt;font style=&quot;vertical-align: inherit;&quot;&gt;&lt;font style=&quot;vertical-align: inherit;&quot;&gt;&lt;font face=&quot;Times New Roman&quot; style=&quot;vertical-align: inherit; font-size: 31px;&quot;&gt;&lt;b style=&quot;&quot;&gt;Diagrama de entidad- relacion: tables_database_SIA.sql&lt;/b&gt;&lt;/font&gt;&lt;/font&gt;&lt;/font&gt;&lt;/font&gt;&lt;/font&gt;&lt;/font&gt;&lt;/font&gt;&lt;/font&gt;" style="text;strokeColor=none;fillColor=none;html=1;align=center;verticalAlign=middle;whiteSpace=wrap;rounded=0;fontSize=16;" parent="1" vertex="1">
          <mxGeometry x="-847" y="-3278" width="845" height="30" as="geometry" />
        </mxCell>
        <mxCell id="Hz7jpVkMcCUcL8wQfnKb-154" value="&lt;font style=&quot;vertical-align: inherit;&quot;&gt;&lt;font style=&quot;vertical-align: inherit;&quot;&gt;&lt;font style=&quot;vertical-align: inherit;&quot;&gt;&lt;font style=&quot;vertical-align: inherit;&quot;&gt;&lt;font style=&quot;vertical-align: inherit;&quot;&gt;&lt;font style=&quot;vertical-align: inherit;&quot;&gt;&lt;font style=&quot;vertical-align: inherit;&quot;&gt;&lt;font face=&quot;Times New Roman&quot; style=&quot;vertical-align: inherit; font-size: 31px;&quot;&gt;&lt;b style=&quot;&quot;&gt;&lt;font style=&quot;vertical-align: inherit;&quot;&gt;&lt;font style=&quot;vertical-align: inherit;&quot;&gt;Diagrama de clase: config_database.php&lt;/font&gt;&lt;/font&gt;&lt;/b&gt;&lt;/font&gt;&lt;/font&gt;&lt;/font&gt;&lt;/font&gt;&lt;/font&gt;&lt;/font&gt;&lt;/font&gt;&lt;/font&gt;" style="text;strokeColor=none;fillColor=none;html=1;align=center;verticalAlign=middle;whiteSpace=wrap;rounded=0;fontSize=16;" parent="1" vertex="1">
          <mxGeometry x="-850" y="-2180" width="845" height="30" as="geometry" />
        </mxCell>
        <mxCell id="Hz7jpVkMcCUcL8wQfnKb-155" value="Thread 1" style="swimlane;whiteSpace=wrap" parent="1" vertex="1">
          <mxGeometry x="-845" y="-992" width="280" height="977" as="geometry" />
        </mxCell>
        <mxCell id="Hz7jpVkMcCUcL8wQfnKb-156" value="" style="ellipse;shape=startState;fillColor=#000000;strokeColor=#ff0000;" parent="Hz7jpVkMcCUcL8wQfnKb-155" vertex="1">
          <mxGeometry x="100" y="40" width="30" height="30" as="geometry" />
        </mxCell>
        <mxCell id="Hz7jpVkMcCUcL8wQfnKb-157" value="" style="edgeStyle=elbowEdgeStyle;elbow=horizontal;verticalAlign=bottom;endArrow=open;endSize=8;strokeColor=#FF0000;endFill=1;rounded=0;fontSize=12;curved=1;" parent="Hz7jpVkMcCUcL8wQfnKb-155" source="Hz7jpVkMcCUcL8wQfnKb-156" target="Hz7jpVkMcCUcL8wQfnKb-158" edge="1">
          <mxGeometry x="100" y="40" as="geometry">
            <mxPoint x="115" y="110" as="targetPoint" />
          </mxGeometry>
        </mxCell>
        <mxCell id="Hz7jpVkMcCUcL8wQfnKb-158" value="idle" style="" parent="Hz7jpVkMcCUcL8wQfnKb-155" vertex="1">
          <mxGeometry x="60" y="110" width="110" height="50" as="geometry" />
        </mxCell>
        <mxCell id="Hz7jpVkMcCUcL8wQfnKb-159" value="user action" style="" parent="Hz7jpVkMcCUcL8wQfnKb-155" vertex="1">
          <mxGeometry x="60" y="220" width="110" height="50" as="geometry" />
        </mxCell>
        <mxCell id="Hz7jpVkMcCUcL8wQfnKb-160" value="" style="endArrow=open;strokeColor=#FF0000;endFill=1;rounded=0;fontSize=12;startSize=8;endSize=8;curved=1;" parent="Hz7jpVkMcCUcL8wQfnKb-155" source="Hz7jpVkMcCUcL8wQfnKb-158" target="Hz7jpVkMcCUcL8wQfnKb-159" edge="1">
          <mxGeometry relative="1" as="geometry" />
        </mxCell>
        <mxCell id="Hz7jpVkMcCUcL8wQfnKb-161" value="post command" style="" parent="Hz7jpVkMcCUcL8wQfnKb-155" vertex="1">
          <mxGeometry x="60" y="325" width="110" height="50" as="geometry" />
        </mxCell>
        <mxCell id="Hz7jpVkMcCUcL8wQfnKb-162" value="" style="endArrow=open;strokeColor=#FF0000;endFill=1;rounded=0;fontSize=12;startSize=8;endSize=8;curved=1;" parent="Hz7jpVkMcCUcL8wQfnKb-155" source="Hz7jpVkMcCUcL8wQfnKb-159" target="Hz7jpVkMcCUcL8wQfnKb-161" edge="1">
          <mxGeometry relative="1" as="geometry" />
        </mxCell>
        <mxCell id="Hz7jpVkMcCUcL8wQfnKb-163" value="" style="edgeStyle=elbowEdgeStyle;elbow=horizontal;strokeColor=#FF0000;endArrow=open;endFill=1;rounded=0;fontSize=12;startSize=8;endSize=8;curved=1;" parent="Hz7jpVkMcCUcL8wQfnKb-155" source="Hz7jpVkMcCUcL8wQfnKb-161" target="Hz7jpVkMcCUcL8wQfnKb-158" edge="1">
          <mxGeometry width="100" height="100" relative="1" as="geometry">
            <mxPoint x="160" y="290" as="sourcePoint" />
            <mxPoint x="260" y="190" as="targetPoint" />
            <Array as="points">
              <mxPoint x="30" y="250" />
            </Array>
          </mxGeometry>
        </mxCell>
        <mxCell id="Hz7jpVkMcCUcL8wQfnKb-164" value="Thread 2" style="swimlane;whiteSpace=wrap" parent="1" vertex="1">
          <mxGeometry x="-565" y="-992" width="280" height="977" as="geometry" />
        </mxCell>
        <mxCell id="Hz7jpVkMcCUcL8wQfnKb-165" value="" style="ellipse;shape=startState;fillColor=#000000;strokeColor=#ff0000;" parent="Hz7jpVkMcCUcL8wQfnKb-164" vertex="1">
          <mxGeometry x="60" y="40" width="30" height="30" as="geometry" />
        </mxCell>
        <mxCell id="Hz7jpVkMcCUcL8wQfnKb-166" value="" style="edgeStyle=elbowEdgeStyle;elbow=horizontal;verticalAlign=bottom;endArrow=open;endSize=8;strokeColor=#FF0000;endFill=1;rounded=0;fontSize=12;curved=1;" parent="Hz7jpVkMcCUcL8wQfnKb-164" source="Hz7jpVkMcCUcL8wQfnKb-165" target="Hz7jpVkMcCUcL8wQfnKb-167" edge="1">
          <mxGeometry x="40" y="20" as="geometry">
            <mxPoint x="55" y="90" as="targetPoint" />
          </mxGeometry>
        </mxCell>
        <mxCell id="Hz7jpVkMcCUcL8wQfnKb-167" value="idle" style="" parent="Hz7jpVkMcCUcL8wQfnKb-164" vertex="1">
          <mxGeometry x="20" y="110" width="110" height="50" as="geometry" />
        </mxCell>
        <mxCell id="Hz7jpVkMcCUcL8wQfnKb-168" value="check for &#xa;new commands" style="" parent="Hz7jpVkMcCUcL8wQfnKb-164" vertex="1">
          <mxGeometry x="20" y="220" width="110" height="50" as="geometry" />
        </mxCell>
        <mxCell id="Hz7jpVkMcCUcL8wQfnKb-169" value="" style="endArrow=open;strokeColor=#FF0000;endFill=1;rounded=0;fontSize=12;startSize=8;endSize=8;curved=1;" parent="Hz7jpVkMcCUcL8wQfnKb-164" source="Hz7jpVkMcCUcL8wQfnKb-167" target="Hz7jpVkMcCUcL8wQfnKb-168" edge="1">
          <mxGeometry relative="1" as="geometry" />
        </mxCell>
        <mxCell id="Hz7jpVkMcCUcL8wQfnKb-170" value="command queue" style="" parent="Hz7jpVkMcCUcL8wQfnKb-164" vertex="1">
          <mxGeometry x="20" y="325" width="110" height="50" as="geometry" />
        </mxCell>
        <mxCell id="Hz7jpVkMcCUcL8wQfnKb-171" value="" style="endArrow=open;strokeColor=#FF0000;endFill=1;rounded=0;fontSize=12;startSize=8;endSize=8;curved=1;" parent="Hz7jpVkMcCUcL8wQfnKb-164" source="Hz7jpVkMcCUcL8wQfnKb-168" target="Hz7jpVkMcCUcL8wQfnKb-170" edge="1">
          <mxGeometry relative="1" as="geometry" />
        </mxCell>
        <mxCell id="Hz7jpVkMcCUcL8wQfnKb-172" value="queue empty" style="rhombus;fillColor=#ffffc0;strokeColor=#ff0000;" parent="Hz7jpVkMcCUcL8wQfnKb-164" vertex="1">
          <mxGeometry x="150" y="225" width="80" height="40" as="geometry" />
        </mxCell>
        <mxCell id="Hz7jpVkMcCUcL8wQfnKb-173" value="yes" style="edgeStyle=elbowEdgeStyle;elbow=horizontal;align=left;verticalAlign=bottom;endArrow=open;endSize=8;strokeColor=#FF0000;exitX=0.5;exitY=0;endFill=1;rounded=0;entryX=0.75;entryY=0.5;entryPerimeter=0;fontSize=12;curved=1;" parent="Hz7jpVkMcCUcL8wQfnKb-164" source="Hz7jpVkMcCUcL8wQfnKb-172" target="Hz7jpVkMcCUcL8wQfnKb-176" edge="1">
          <mxGeometry x="-1" relative="1" as="geometry">
            <mxPoint x="160" y="150" as="targetPoint" />
            <Array as="points">
              <mxPoint x="190" y="180" />
            </Array>
          </mxGeometry>
        </mxCell>
        <mxCell id="Hz7jpVkMcCUcL8wQfnKb-174" value="no" style="edgeStyle=elbowEdgeStyle;elbow=horizontal;align=left;verticalAlign=top;endArrow=open;endSize=8;strokeColor=#FF0000;endFill=1;rounded=0;fontSize=12;curved=1;" parent="Hz7jpVkMcCUcL8wQfnKb-164" source="Hz7jpVkMcCUcL8wQfnKb-172" target="Hz7jpVkMcCUcL8wQfnKb-178" edge="1">
          <mxGeometry x="-1" relative="1" as="geometry">
            <mxPoint x="190" y="305" as="targetPoint" />
          </mxGeometry>
        </mxCell>
        <mxCell id="Hz7jpVkMcCUcL8wQfnKb-175" value="" style="endArrow=open;strokeColor=#FF0000;endFill=1;rounded=0;fontSize=12;startSize=8;endSize=8;curved=1;" parent="Hz7jpVkMcCUcL8wQfnKb-164" source="Hz7jpVkMcCUcL8wQfnKb-168" target="Hz7jpVkMcCUcL8wQfnKb-172" edge="1">
          <mxGeometry relative="1" as="geometry" />
        </mxCell>
        <mxCell id="Hz7jpVkMcCUcL8wQfnKb-176" value="" style="shape=line;strokeWidth=6;strokeColor=#ff0000;rotation=90" parent="Hz7jpVkMcCUcL8wQfnKb-164" vertex="1">
          <mxGeometry x="130" y="127.5" width="50" height="15" as="geometry" />
        </mxCell>
        <mxCell id="Hz7jpVkMcCUcL8wQfnKb-177" value="" style="edgeStyle=elbowEdgeStyle;elbow=horizontal;verticalAlign=bottom;endArrow=open;endSize=8;strokeColor=#FF0000;endFill=1;rounded=0;fontSize=12;curved=1;" parent="Hz7jpVkMcCUcL8wQfnKb-164" source="Hz7jpVkMcCUcL8wQfnKb-176" target="Hz7jpVkMcCUcL8wQfnKb-167" edge="1">
          <mxGeometry x="130" y="90" as="geometry">
            <mxPoint x="230" y="140" as="targetPoint" />
          </mxGeometry>
        </mxCell>
        <mxCell id="Hz7jpVkMcCUcL8wQfnKb-178" value="dispatch&#xa;command&#xa;worker thread" style="" parent="Hz7jpVkMcCUcL8wQfnKb-164" vertex="1">
          <mxGeometry x="140" y="325" width="110" height="50" as="geometry" />
        </mxCell>
        <mxCell id="Hz7jpVkMcCUcL8wQfnKb-179" value="critical&#xa;section" style="shape=note;whiteSpace=wrap;size=17" parent="Hz7jpVkMcCUcL8wQfnKb-164" vertex="1">
          <mxGeometry x="105" y="490" width="100" height="50" as="geometry" />
        </mxCell>
        <mxCell id="Hz7jpVkMcCUcL8wQfnKb-180" value="" style="endArrow=none;strokeColor=#FF0000;endFill=0;rounded=0;dashed=1;fontSize=12;startSize=8;endSize=8;curved=1;" parent="Hz7jpVkMcCUcL8wQfnKb-164" source="Hz7jpVkMcCUcL8wQfnKb-170" target="Hz7jpVkMcCUcL8wQfnKb-179" edge="1">
          <mxGeometry relative="1" as="geometry" />
        </mxCell>
        <mxCell id="Hz7jpVkMcCUcL8wQfnKb-181" value="" style="whiteSpace=wrap;strokeColor=#FF0000;fillColor=#FF0000" parent="Hz7jpVkMcCUcL8wQfnKb-164" vertex="1">
          <mxGeometry x="245" y="395" width="5" height="45" as="geometry" />
        </mxCell>
        <mxCell id="Hz7jpVkMcCUcL8wQfnKb-182" value="" style="edgeStyle=elbowEdgeStyle;elbow=horizontal;entryX=0;entryY=0.5;strokeColor=#FF0000;endArrow=open;endFill=1;rounded=0;fontSize=12;startSize=8;endSize=8;curved=1;" parent="Hz7jpVkMcCUcL8wQfnKb-164" source="Hz7jpVkMcCUcL8wQfnKb-178" target="Hz7jpVkMcCUcL8wQfnKb-181" edge="1">
          <mxGeometry width="100" height="100" relative="1" as="geometry">
            <mxPoint x="60" y="480" as="sourcePoint" />
            <mxPoint x="160" y="380" as="targetPoint" />
            <Array as="points">
              <mxPoint x="195" y="400" />
            </Array>
          </mxGeometry>
        </mxCell>
        <mxCell id="Hz7jpVkMcCUcL8wQfnKb-183" value="Thread 3" style="swimlane;whiteSpace=wrap" parent="1" vertex="1">
          <mxGeometry x="-285" y="-992" width="280" height="978" as="geometry" />
        </mxCell>
        <mxCell id="Hz7jpVkMcCUcL8wQfnKb-184" value="process&#xa;command" style="" parent="Hz7jpVkMcCUcL8wQfnKb-183" vertex="1">
          <mxGeometry x="90" y="405" width="110" height="50" as="geometry" />
        </mxCell>
        <mxCell id="Hz7jpVkMcCUcL8wQfnKb-185" value="" style="edgeStyle=elbowEdgeStyle;elbow=horizontal;strokeColor=#FF0000;endArrow=open;endFill=1;rounded=0;entryX=0.25;entryY=0.5;entryPerimeter=0;fontSize=12;startSize=8;endSize=8;curved=1;" parent="Hz7jpVkMcCUcL8wQfnKb-183" target="Hz7jpVkMcCUcL8wQfnKb-176" edge="1">
          <mxGeometry width="100" height="100" relative="1" as="geometry">
            <mxPoint x="-30" y="410" as="sourcePoint" />
            <mxPoint x="-120" y="120" as="targetPoint" />
            <Array as="points">
              <mxPoint x="-10" y="135" />
            </Array>
          </mxGeometry>
        </mxCell>
        <mxCell id="Hz7jpVkMcCUcL8wQfnKb-186" value="" style="edgeStyle=none;strokeColor=#FF0000;endArrow=open;endFill=1;rounded=0;fontSize=12;startSize=8;endSize=8;curved=1;" parent="Hz7jpVkMcCUcL8wQfnKb-183" target="Hz7jpVkMcCUcL8wQfnKb-184" edge="1">
          <mxGeometry width="100" height="100" relative="1" as="geometry">
            <mxPoint x="-30" y="429.5" as="sourcePoint" />
            <mxPoint x="90" y="429.5" as="targetPoint" />
          </mxGeometry>
        </mxCell>
        <mxCell id="Hz7jpVkMcCUcL8wQfnKb-187" value="" style="ellipse;shape=endState;fillColor=#000000;strokeColor=#ff0000" parent="Hz7jpVkMcCUcL8wQfnKb-183" vertex="1">
          <mxGeometry x="130" y="500" width="30" height="30" as="geometry" />
        </mxCell>
        <mxCell id="Hz7jpVkMcCUcL8wQfnKb-188" value="" style="endArrow=open;strokeColor=#FF0000;endFill=1;rounded=0;fontSize=12;startSize=8;endSize=8;curved=1;" parent="Hz7jpVkMcCUcL8wQfnKb-183" source="Hz7jpVkMcCUcL8wQfnKb-184" target="Hz7jpVkMcCUcL8wQfnKb-187" edge="1">
          <mxGeometry relative="1" as="geometry" />
        </mxCell>
        <mxCell id="Hz7jpVkMcCUcL8wQfnKb-189" value="" style="endArrow=open;strokeColor=#FF0000;endFill=1;rounded=0;fontSize=12;startSize=8;endSize=8;curved=1;" parent="1" source="Hz7jpVkMcCUcL8wQfnKb-161" target="Hz7jpVkMcCUcL8wQfnKb-170" edge="1">
          <mxGeometry relative="1" as="geometry" />
        </mxCell>
        <mxCell id="Hz7jpVkMcCUcL8wQfnKb-123" value="config_database" style="swimlane;fontStyle=2;align=center;verticalAlign=top;childLayout=stackLayout;horizontal=1;startSize=26;horizontalStack=0;resizeParent=1;resizeLast=0;collapsible=1;marginBottom=0;rounded=0;shadow=0;strokeWidth=1;" parent="1" vertex="1">
          <mxGeometry x="-550.032189781022" y="-2067" width="195.03649635036496" height="242.06349206349205" as="geometry">
            <mxRectangle x="230" y="140" width="160" height="26" as="alternateBounds" />
          </mxGeometry>
        </mxCell>
        <mxCell id="Hz7jpVkMcCUcL8wQfnKb-124" value="Name" style="text;align=left;verticalAlign=top;spacingLeft=4;spacingRight=4;overflow=hidden;rotatable=0;points=[[0,0.5],[1,0.5]];portConstraint=eastwest;" parent="Hz7jpVkMcCUcL8wQfnKb-123" vertex="1">
          <mxGeometry y="26" width="195.03649635036496" height="34.25396825396825" as="geometry" />
        </mxCell>
        <mxCell id="Hz7jpVkMcCUcL8wQfnKb-125" value="Phone Number" style="text;align=left;verticalAlign=top;spacingLeft=4;spacingRight=4;overflow=hidden;rotatable=0;points=[[0,0.5],[1,0.5]];portConstraint=eastwest;rounded=0;shadow=0;html=0;" parent="Hz7jpVkMcCUcL8wQfnKb-123" vertex="1">
          <mxGeometry y="60.25396825396825" width="195.03649635036496" height="34.25396825396825" as="geometry" />
        </mxCell>
        <mxCell id="Hz7jpVkMcCUcL8wQfnKb-126" value="Email Address" style="text;align=left;verticalAlign=top;spacingLeft=4;spacingRight=4;overflow=hidden;rotatable=0;points=[[0,0.5],[1,0.5]];portConstraint=eastwest;rounded=0;shadow=0;html=0;" parent="Hz7jpVkMcCUcL8wQfnKb-123" vertex="1">
          <mxGeometry y="94.5079365079365" width="195.03649635036496" height="34.25396825396825" as="geometry" />
        </mxCell>
        <mxCell id="Hz7jpVkMcCUcL8wQfnKb-127" value="" style="line;html=1;strokeWidth=1;align=left;verticalAlign=middle;spacingTop=-1;spacingLeft=3;spacingRight=3;rotatable=0;labelPosition=right;points=[];portConstraint=eastwest;" parent="Hz7jpVkMcCUcL8wQfnKb-123" vertex="1">
          <mxGeometry y="128.76190476190476" width="195.03649635036496" height="10.53968253968254" as="geometry" />
        </mxCell>
        <mxCell id="Hz7jpVkMcCUcL8wQfnKb-128" value="Purchase Parking Pass" style="text;align=left;verticalAlign=top;spacingLeft=4;spacingRight=4;overflow=hidden;rotatable=0;points=[[0,0.5],[1,0.5]];portConstraint=eastwest;" parent="Hz7jpVkMcCUcL8wQfnKb-123" vertex="1">
          <mxGeometry y="139.3015873015873" width="195.03649635036496" height="34.25396825396825" as="geometry" />
        </mxCell>
        <mxCell id="6_M-9RwByOMX4s6lnJGO-6" style="text;align=left;verticalAlign=top;spacingLeft=4;spacingRight=4;overflow=hidden;rotatable=0;points=[[0,0.5],[1,0.5]];portConstraint=eastwest;" parent="Hz7jpVkMcCUcL8wQfnKb-123" vertex="1">
          <mxGeometry y="173.55555555555554" width="195.03649635036496" height="34.25396825396825" as="geometry" />
        </mxCell>
        <mxCell id="6_M-9RwByOMX4s6lnJGO-5" style="text;align=left;verticalAlign=top;spacingLeft=4;spacingRight=4;overflow=hidden;rotatable=0;points=[[0,0.5],[1,0.5]];portConstraint=eastwest;" parent="Hz7jpVkMcCUcL8wQfnKb-123" vertex="1">
          <mxGeometry y="207.8095238095238" width="195.03649635036496" height="34.25396825396825" as="geometry" />
        </mxCell>
        <mxCell id="hfySa0wKCtFvmeLXtYxJ-1" style="edgeStyle=none;curved=1;rounded=0;orthogonalLoop=1;jettySize=auto;html=1;exitX=0.5;exitY=1;exitDx=0;exitDy=0;entryX=0.5;entryY=0;entryDx=0;entryDy=0;entryPerimeter=0;fontSize=12;startSize=8;endSize=8;" parent="1" source="_KhCzG9Bb4c7q6jr102G-11" target="_KhCzG9Bb4c7q6jr102G-1" edge="1">
          <mxGeometry relative="1" as="geometry" />
        </mxCell>
        <mxCell id="hfySa0wKCtFvmeLXtYxJ-2" value="&lt;span style=&quot;font-size: 15px;&quot;&gt;verificación de credenciales&lt;/span&gt;" style="edgeLabel;html=1;align=center;verticalAlign=middle;resizable=0;points=[];fontSize=12;" parent="hfySa0wKCtFvmeLXtYxJ-1" vertex="1" connectable="0">
          <mxGeometry x="0.0305" y="3" relative="1" as="geometry">
            <mxPoint as="offset" />
          </mxGeometry>
        </mxCell>
        <mxCell id="hfySa0wKCtFvmeLXtYxJ-5" value="Mensaje (Hemos Notificado tu olvido de credenciales)" style="shape=document;whiteSpace=wrap;html=1;boundedLbl=1;" parent="1" vertex="1">
          <mxGeometry x="-133" y="438" width="120" height="80" as="geometry" />
        </mxCell>
        <mxCell id="hfySa0wKCtFvmeLXtYxJ-10" style="edgeStyle=none;curved=1;rounded=0;orthogonalLoop=1;jettySize=auto;html=1;exitX=0.25;exitY=0;exitDx=0;exitDy=0;entryX=0.5;entryY=1;entryDx=0;entryDy=0;fontSize=12;startSize=8;endSize=8;" parent="1" source="hfySa0wKCtFvmeLXtYxJ-6" target="_KhCzG9Bb4c7q6jr102G-8" edge="1">
          <mxGeometry relative="1" as="geometry" />
        </mxCell>
        <mxCell id="hfySa0wKCtFvmeLXtYxJ-6" value="&lt;font style=&quot;vertical-align: inherit;&quot;&gt;&lt;font style=&quot;vertical-align: inherit;&quot;&gt;Mensaje (credenciales incorrectas te quedan X limite de intenciones)&lt;/font&gt;&lt;/font&gt;" style="shape=document;whiteSpace=wrap;html=1;boundedLbl=1;" parent="1" vertex="1">
          <mxGeometry x="-627.5" y="426" width="137" height="80" as="geometry" />
        </mxCell>
        <mxCell id="hfySa0wKCtFvmeLXtYxJ-8" style="edgeStyle=none;curved=1;rounded=0;orthogonalLoop=1;jettySize=auto;html=1;entryX=0.5;entryY=1;entryDx=0;entryDy=0;fontSize=12;startSize=8;endSize=8;" parent="1" source="hfySa0wKCtFvmeLXtYxJ-7" target="_KhCzG9Bb4c7q6jr102G-8" edge="1">
          <mxGeometry relative="1" as="geometry" />
        </mxCell>
        <mxCell id="hfySa0wKCtFvmeLXtYxJ-7" value="Mensaje (Haz alcanzado el limite de intentos)" style="shape=document;whiteSpace=wrap;html=1;boundedLbl=1;" parent="1" vertex="1">
          <mxGeometry x="-828.25" y="326" width="120" height="80" as="geometry" />
        </mxCell>
        <mxCell id="hfySa0wKCtFvmeLXtYxJ-14" style="edgeStyle=none;curved=1;rounded=0;orthogonalLoop=1;jettySize=auto;html=1;exitX=0.5;exitY=1;exitDx=0;exitDy=0;fontSize=12;startSize=8;endSize=8;entryX=0.477;entryY=0.041;entryDx=0;entryDy=0;entryPerimeter=0;" parent="1" source="hfySa0wKCtFvmeLXtYxJ-12" target="hfySa0wKCtFvmeLXtYxJ-42" edge="1">
          <mxGeometry relative="1" as="geometry">
            <mxPoint x="-737" y="2432" as="targetPoint" />
          </mxGeometry>
        </mxCell>
        <mxCell id="hfySa0wKCtFvmeLXtYxJ-12" value="INICIO" style="whiteSpace=wrap;html=1;rounded=1;" parent="1" vertex="1">
          <mxGeometry x="-810.25" y="2332" width="147" height="38" as="geometry" />
        </mxCell>
        <mxCell id="hfySa0wKCtFvmeLXtYxJ-13" value="&lt;b style=&quot;font-family: &amp;quot;Times New Roman&amp;quot;;&quot;&gt;&lt;font style=&quot;vertical-align: inherit;&quot;&gt;&lt;font style=&quot;vertical-align: inherit;&quot;&gt;&lt;font style=&quot;vertical-align: inherit;&quot;&gt;&lt;font style=&quot;vertical-align: inherit;&quot;&gt;&lt;font style=&quot;vertical-align: inherit;&quot;&gt;&lt;font style=&quot;vertical-align: inherit;&quot;&gt;&lt;font style=&quot;vertical-align: inherit;&quot;&gt;&lt;font style=&quot;vertical-align: inherit;&quot;&gt;config_database.php&lt;/font&gt;&lt;/font&gt;&lt;/font&gt;&lt;/font&gt;&lt;/font&gt;&lt;/font&gt;&lt;/font&gt;&lt;/font&gt;&lt;/b&gt;" style="shape=cylinder3;whiteSpace=wrap;html=1;boundedLbl=1;backgroundOutline=1;size=15;fillColor=light-dark(#66FF66,#66FF66);" parent="1" vertex="1">
          <mxGeometry x="-401" y="2370" width="113" height="189" as="geometry" />
        </mxCell>
        <mxCell id="hfySa0wKCtFvmeLXtYxJ-19" style="edgeStyle=none;curved=1;rounded=0;orthogonalLoop=1;jettySize=auto;html=1;fontSize=12;startSize=8;endSize=8;" parent="1" source="hfySa0wKCtFvmeLXtYxJ-16" target="hfySa0wKCtFvmeLXtYxJ-20" edge="1">
          <mxGeometry relative="1" as="geometry">
            <mxPoint x="-730" y="2691" as="targetPoint" />
          </mxGeometry>
        </mxCell>
        <mxCell id="hfySa0wKCtFvmeLXtYxJ-16" value="&lt;font style=&quot;vertical-align: inherit;&quot;&gt;&lt;font style=&quot;vertical-align: inherit;&quot;&gt;Obtener el nombre del usuario desde la sesión.&lt;/font&gt;&lt;/font&gt;" style="shape=process;whiteSpace=wrap;html=1;backgroundOutline=1;" parent="1" vertex="1">
          <mxGeometry x="-810.25" y="2561" width="153.5" height="74" as="geometry" />
        </mxCell>
        <mxCell id="hfySa0wKCtFvmeLXtYxJ-17" style="edgeStyle=none;curved=1;rounded=0;orthogonalLoop=1;jettySize=auto;html=1;exitX=1;exitY=0.5;exitDx=0;exitDy=0;entryX=0;entryY=0.5;entryDx=0;entryDy=0;entryPerimeter=0;fontSize=12;startSize=8;endSize=8;" parent="1" source="hfySa0wKCtFvmeLXtYxJ-16" target="hfySa0wKCtFvmeLXtYxJ-13" edge="1">
          <mxGeometry relative="1" as="geometry" />
        </mxCell>
        <mxCell id="hfySa0wKCtFvmeLXtYxJ-18" value="&lt;font style=&quot;vertical-align: inherit;&quot;&gt;&lt;font style=&quot;vertical-align: inherit;&quot;&gt;&lt;font style=&quot;vertical-align: inherit;&quot;&gt;&lt;font style=&quot;vertical-align: inherit;&quot;&gt;Realizar consulta&lt;/font&gt;&lt;/font&gt;&lt;/font&gt;&lt;/font&gt;" style="edgeLabel;html=1;align=center;verticalAlign=middle;resizable=0;points=[];fontSize=12;" parent="hfySa0wKCtFvmeLXtYxJ-17" vertex="1" connectable="0">
          <mxGeometry x="-0.0002" y="1" relative="1" as="geometry">
            <mxPoint as="offset" />
          </mxGeometry>
        </mxCell>
        <mxCell id="hfySa0wKCtFvmeLXtYxJ-21" style="edgeStyle=none;curved=1;rounded=0;orthogonalLoop=1;jettySize=auto;html=1;exitX=0.5;exitY=1;exitDx=0;exitDy=0;fontSize=12;startSize=8;endSize=8;" parent="1" source="hfySa0wKCtFvmeLXtYxJ-20" target="hfySa0wKCtFvmeLXtYxJ-22" edge="1">
          <mxGeometry relative="1" as="geometry">
            <mxPoint x="-730" y="2794" as="targetPoint" />
          </mxGeometry>
        </mxCell>
        <mxCell id="hfySa0wKCtFvmeLXtYxJ-20" value="&lt;font style=&quot;vertical-align: inherit;&quot;&gt;&lt;font style=&quot;vertical-align: inherit;&quot;&gt;Obtenedor la fecha y hora actual.&lt;/font&gt;&lt;/font&gt;" style="shape=process;whiteSpace=wrap;html=1;backgroundOutline=1;" parent="1" vertex="1">
          <mxGeometry x="-790.25" y="2665" width="120" height="60" as="geometry" />
        </mxCell>
        <mxCell id="hfySa0wKCtFvmeLXtYxJ-24" style="edgeStyle=none;curved=1;rounded=0;orthogonalLoop=1;jettySize=auto;html=1;exitX=1;exitY=0.5;exitDx=0;exitDy=0;fontSize=12;startSize=8;endSize=8;" parent="1" source="hfySa0wKCtFvmeLXtYxJ-22" target="hfySa0wKCtFvmeLXtYxJ-23" edge="1">
          <mxGeometry relative="1" as="geometry" />
        </mxCell>
        <mxCell id="hfySa0wKCtFvmeLXtYxJ-22" value="&lt;font style=&quot;vertical-align: inherit;&quot;&gt;&lt;font style=&quot;vertical-align: inherit;&quot;&gt;Mostrar mensaje de bienvenida con el nombre del usuario y la fecha y hora actual.&lt;/font&gt;&lt;/font&gt;" style="shape=process;whiteSpace=wrap;html=1;backgroundOutline=1;" parent="1" vertex="1">
          <mxGeometry x="-810.25" y="2749" width="160" height="108" as="geometry" />
        </mxCell>
        <mxCell id="hfySa0wKCtFvmeLXtYxJ-30" style="edgeStyle=none;curved=1;rounded=0;orthogonalLoop=1;jettySize=auto;html=1;exitX=0.5;exitY=1;exitDx=0;exitDy=0;entryX=0.5;entryY=0;entryDx=0;entryDy=0;fontSize=12;startSize=8;endSize=8;" parent="1" source="hfySa0wKCtFvmeLXtYxJ-23" target="hfySa0wKCtFvmeLXtYxJ-26" edge="1">
          <mxGeometry relative="1" as="geometry" />
        </mxCell>
        <mxCell id="hfySa0wKCtFvmeLXtYxJ-31" style="edgeStyle=none;curved=1;rounded=0;orthogonalLoop=1;jettySize=auto;html=1;exitX=0.5;exitY=1;exitDx=0;exitDy=0;entryX=0.5;entryY=0;entryDx=0;entryDy=0;fontSize=12;startSize=8;endSize=8;" parent="1" source="hfySa0wKCtFvmeLXtYxJ-23" target="hfySa0wKCtFvmeLXtYxJ-27" edge="1">
          <mxGeometry relative="1" as="geometry" />
        </mxCell>
        <mxCell id="hfySa0wKCtFvmeLXtYxJ-32" style="edgeStyle=none;curved=1;rounded=0;orthogonalLoop=1;jettySize=auto;html=1;exitX=0.5;exitY=1;exitDx=0;exitDy=0;entryX=0.5;entryY=0;entryDx=0;entryDy=0;fontSize=12;startSize=8;endSize=8;" parent="1" source="hfySa0wKCtFvmeLXtYxJ-23" target="hfySa0wKCtFvmeLXtYxJ-28" edge="1">
          <mxGeometry relative="1" as="geometry" />
        </mxCell>
        <mxCell id="hfySa0wKCtFvmeLXtYxJ-33" style="edgeStyle=none;curved=1;rounded=0;orthogonalLoop=1;jettySize=auto;html=1;exitX=0.5;exitY=1;exitDx=0;exitDy=0;entryX=0.5;entryY=0;entryDx=0;entryDy=0;fontSize=12;startSize=8;endSize=8;" parent="1" source="hfySa0wKCtFvmeLXtYxJ-23" target="hfySa0wKCtFvmeLXtYxJ-25" edge="1">
          <mxGeometry relative="1" as="geometry" />
        </mxCell>
        <mxCell id="hfySa0wKCtFvmeLXtYxJ-36" style="edgeStyle=none;curved=1;rounded=0;orthogonalLoop=1;jettySize=auto;html=1;exitX=0.5;exitY=1;exitDx=0;exitDy=0;entryX=0.5;entryY=0;entryDx=0;entryDy=0;fontSize=12;startSize=8;endSize=8;" parent="1" source="hfySa0wKCtFvmeLXtYxJ-23" target="hfySa0wKCtFvmeLXtYxJ-34" edge="1">
          <mxGeometry relative="1" as="geometry" />
        </mxCell>
        <mxCell id="hfySa0wKCtFvmeLXtYxJ-37" style="edgeStyle=none;curved=1;rounded=0;orthogonalLoop=1;jettySize=auto;html=1;exitX=0.5;exitY=1;exitDx=0;exitDy=0;entryX=0.5;entryY=0;entryDx=0;entryDy=0;fontSize=12;startSize=8;endSize=8;" parent="1" source="hfySa0wKCtFvmeLXtYxJ-23" target="hfySa0wKCtFvmeLXtYxJ-35" edge="1">
          <mxGeometry relative="1" as="geometry" />
        </mxCell>
        <mxCell id="hfySa0wKCtFvmeLXtYxJ-40" style="edgeStyle=none;curved=1;rounded=0;orthogonalLoop=1;jettySize=auto;html=1;exitX=0.5;exitY=1;exitDx=0;exitDy=0;fontSize=12;startSize=8;endSize=8;entryX=0.5;entryY=0;entryDx=0;entryDy=0;" parent="1" source="hfySa0wKCtFvmeLXtYxJ-23" target="hfySa0wKCtFvmeLXtYxJ-41" edge="1">
          <mxGeometry relative="1" as="geometry">
            <mxPoint x="-401" y="3069.666666666667" as="targetPoint" />
            <Array as="points">
              <mxPoint x="-433" y="3120" />
            </Array>
          </mxGeometry>
        </mxCell>
        <mxCell id="hfySa0wKCtFvmeLXtYxJ-23" value="&lt;font style=&quot;vertical-align: inherit;&quot;&gt;&lt;font style=&quot;vertical-align: inherit;&quot;&gt;&lt;font style=&quot;vertical-align: inherit;&quot;&gt;&lt;font style=&quot;vertical-align: inherit;&quot;&gt;Botones de acción&lt;/font&gt;&lt;/font&gt;&lt;/font&gt;&lt;/font&gt;" style="rounded=0;whiteSpace=wrap;html=1;" parent="1" vertex="1">
          <mxGeometry x="-487.5" y="2775" width="161" height="62" as="geometry" />
        </mxCell>
        <mxCell id="hfySa0wKCtFvmeLXtYxJ-25" value="&lt;font style=&quot;vertical-align: inherit;&quot;&gt;&lt;font style=&quot;vertical-align: inherit;&quot;&gt;Crear centro&lt;/font&gt;&lt;/font&gt;" style="shape=process;whiteSpace=wrap;html=1;backgroundOutline=1;" parent="1" vertex="1">
          <mxGeometry x="-815" y="2899" width="120" height="60" as="geometry" />
        </mxCell>
        <mxCell id="hfySa0wKCtFvmeLXtYxJ-26" value="Crear grado" style="shape=process;whiteSpace=wrap;html=1;backgroundOutline=1;" parent="1" vertex="1">
          <mxGeometry x="-674.3" y="2899" width="120" height="60" as="geometry" />
        </mxCell>
        <mxCell id="hfySa0wKCtFvmeLXtYxJ-27" value="&lt;font style=&quot;vertical-align: inherit;&quot;&gt;&lt;font style=&quot;vertical-align: inherit;&quot;&gt;Crear asignatura&lt;/font&gt;&lt;/font&gt;" style="shape=process;whiteSpace=wrap;html=1;backgroundOutline=1;" parent="1" vertex="1">
          <mxGeometry x="-259.5" y="2899" width="120" height="60" as="geometry" />
        </mxCell>
        <mxCell id="hfySa0wKCtFvmeLXtYxJ-28" value="&lt;font style=&quot;vertical-align: inherit;&quot;&gt;&lt;font style=&quot;vertical-align: inherit;&quot;&gt;Crear usuario&lt;/font&gt;&lt;/font&gt;" style="shape=process;whiteSpace=wrap;html=1;backgroundOutline=1;" parent="1" vertex="1">
          <mxGeometry x="-125" y="2899" width="120" height="60" as="geometry" />
        </mxCell>
        <mxCell id="hfySa0wKCtFvmeLXtYxJ-34" value="&lt;font style=&quot;vertical-align: inherit;&quot;&gt;&lt;font style=&quot;vertical-align: inherit;&quot;&gt;Crear estudiante&lt;/font&gt;&lt;/font&gt;" style="shape=process;whiteSpace=wrap;html=1;backgroundOutline=1;" parent="1" vertex="1">
          <mxGeometry x="-538" y="2899" width="120" height="60" as="geometry" />
        </mxCell>
        <mxCell id="hfySa0wKCtFvmeLXtYxJ-35" value="&lt;font style=&quot;vertical-align: inherit;&quot;&gt;&lt;font style=&quot;vertical-align: inherit;&quot;&gt;Crear profesor&lt;/font&gt;&lt;/font&gt;" style="shape=process;whiteSpace=wrap;html=1;backgroundOutline=1;" parent="1" vertex="1">
          <mxGeometry x="-390" y="2899" width="120" height="60" as="geometry" />
        </mxCell>
        <mxCell id="hfySa0wKCtFvmeLXtYxJ-41" value="&lt;font style=&quot;vertical-align: inherit;&quot;&gt;&lt;font style=&quot;vertical-align: inherit;&quot;&gt;FIN&lt;/font&gt;&lt;/font&gt;" style="whiteSpace=wrap;html=1;rounded=1;" parent="1" vertex="1">
          <mxGeometry x="-160" y="3185" width="147" height="38" as="geometry" />
        </mxCell>
        <mxCell id="hfySa0wKCtFvmeLXtYxJ-44" style="edgeStyle=none;curved=1;rounded=0;orthogonalLoop=1;jettySize=auto;html=1;exitX=0.5;exitY=1;exitDx=0;exitDy=0;entryX=0.5;entryY=0;entryDx=0;entryDy=0;fontSize=12;startSize=8;endSize=8;" parent="1" source="hfySa0wKCtFvmeLXtYxJ-42" target="hfySa0wKCtFvmeLXtYxJ-16" edge="1">
          <mxGeometry relative="1" as="geometry" />
        </mxCell>
        <mxCell id="hfySa0wKCtFvmeLXtYxJ-42" value="&lt;font style=&quot;vertical-align: inherit;&quot;&gt;&lt;font style=&quot;vertical-align: inherit;&quot;&gt;&lt;font style=&quot;vertical-align: inherit;&quot;&gt;&lt;font style=&quot;vertical-align: inherit;&quot;&gt;Establecer conexión a base de datos centrada&lt;/font&gt;&lt;/font&gt;&lt;/font&gt;&lt;/font&gt;" style="shape=process;whiteSpace=wrap;html=1;backgroundOutline=1;" parent="1" vertex="1">
          <mxGeometry x="-810.25" y="2429" width="153.5" height="74" as="geometry" />
        </mxCell>
        <mxCell id="hfySa0wKCtFvmeLXtYxJ-43" style="edgeStyle=none;curved=1;rounded=0;orthogonalLoop=1;jettySize=auto;html=1;exitX=1;exitY=0.5;exitDx=0;exitDy=0;entryX=0;entryY=0.5;entryDx=0;entryDy=0;entryPerimeter=0;fontSize=12;startSize=8;endSize=8;" parent="1" source="hfySa0wKCtFvmeLXtYxJ-42" target="hfySa0wKCtFvmeLXtYxJ-13" edge="1">
          <mxGeometry relative="1" as="geometry" />
        </mxCell>
      </root>
    </mxGraphModel>
  </diagram>
</mxfile>
